<svg width="66" height="61" viewBox="0 0 66 61" fill="none" xmlns="http://www.w3.org/2000/svg">
<path d="M65.5708 17.3085L56.8897 51.4801C56.2009 54.1913 54.5571 56.6056 52.2237 58.333C49.8904 60.0604 47.0038 61 44.0304 61H27.8413C23.439 61 19.2025 59.4254 15.9966 56.5975L2.23085 44.455C1.25136 43.5885 0.678784 42.3931 0.638863 41.1312C0.598942 39.8694 1.09494 38.6442 2.01793 37.7249C2.94093 36.8055 4.21547 36.2671 5.56169 36.2277C6.9079 36.1884 8.21574 36.6515 9.19801 37.5152L16.9 44.3091C16.9 41.0633 16.4004 37.8344 15.4166 34.7224L9.99045 17.5575C9.60751 16.3455 9.75395 15.0405 10.3976 13.9296C11.0412 12.8188 12.1292 11.9931 13.4224 11.6342C14.7155 11.2752 16.1078 11.4125 17.293 12.0157C18.4782 12.619 19.3591 13.6388 19.7421 14.8509L24.4648 29.7901C24.5436 30.0395 24.7238 30.25 24.9665 30.3762C25.2091 30.5023 25.495 30.5342 25.7625 30.4648C26.0299 30.3955 26.2577 30.2305 26.3967 30.0053C26.5357 29.7802 26.5748 29.5129 26.5057 29.261L20.1115 5.95276C19.7754 4.72886 19.9719 3.42996 20.6576 2.34181C21.3433 1.25365 22.4621 0.465378 23.7679 0.150392C25.0737 -0.164593 26.4595 0.0195134 27.6204 0.662211C28.7814 1.30491 29.6224 2.35355 29.9585 3.57745L37.0887 29.5684C37.1632 29.8402 37.3339 30.0804 37.5728 30.2496C37.8117 30.4189 38.1048 30.5073 38.4042 30.5003C38.7036 30.4934 38.9916 30.3916 39.2213 30.2115C39.451 30.0314 39.6088 29.7837 39.669 29.5087L44.4588 7.62255C44.6029 6.96844 44.8919 6.34998 45.3071 5.80715C45.7222 5.26433 46.2544 4.80925 46.8691 4.47135C47.4837 4.13345 48.1672 3.92026 48.8754 3.84558C49.5835 3.77089 50.3004 3.83636 50.9799 4.03777C53.5043 4.78832 54.9028 7.33477 54.3706 9.76651L50.0694 29.4202C50.0187 29.6516 50.0672 29.8923 50.2042 30.0905C50.3413 30.2887 50.556 30.4284 50.802 30.4795C51.048 30.5305 51.3056 30.4889 51.5192 30.3636C51.7327 30.2382 51.8851 30.0392 51.9435 29.8094L55.6801 15.1008C55.9925 13.8714 56.8131 12.8088 57.9614 12.1465C59.1097 11.4843 60.4916 11.2767 61.8032 11.5695C63.1148 11.8622 64.2486 12.6314 64.9551 13.7077C65.6617 14.7839 65.8832 16.0792 65.5708 17.3085Z" fill="#1E1E1E"/>
</svg>
