<svg width="193" height="45" viewBox="0 0 193 45" fill="none" xmlns="http://www.w3.org/2000/svg">
<path d="M19.9342 8.8C23.9902 8.8 27.2302 9.676 29.6542 11.428C32.1022 13.18 33.3262 15.892 33.3262 19.564V23.236C33.3262 26.98 32.1142 29.716 29.6902 31.444C27.2902 33.148 24.0382 34 19.9342 34H8.45019C8.18619 34 7.95819 33.904 7.76619 33.712C7.57419 33.52 7.47819 33.292 7.47819 33.028V9.772C7.47819 9.508 7.57419 9.28 7.76619 9.088C7.95819 8.896 8.18619 8.8 8.45019 8.8H19.9342ZM20.1142 26.98C21.2422 26.98 22.1302 26.716 22.7782 26.188C23.4502 25.636 23.7862 24.868 23.7862 23.884V18.916C23.7862 17.932 23.4502 17.176 22.7782 16.648C22.1302 16.096 21.2422 15.82 20.1142 15.82H16.8382V26.98H20.1142ZM64.9201 32.884C64.9681 32.98 64.9921 33.088 64.9921 33.208C64.9921 33.424 64.9081 33.616 64.7401 33.784C64.5961 33.928 64.4161 34 64.2001 34H56.0281C55.6921 34 55.3801 33.916 55.0921 33.748C54.8281 33.58 54.6361 33.364 54.5161 33.1L51.3481 25.972H48.3241V33.028C48.3241 33.292 48.2281 33.52 48.0361 33.712C47.8441 33.904 47.6161 34 47.3521 34H39.5761C39.3121 34 39.0841 33.904 38.8921 33.712C38.7001 33.52 38.6041 33.292 38.6041 33.028V9.772C38.6041 9.508 38.7001 9.28 38.8921 9.088C39.0841 8.896 39.3121 8.8 39.5761 8.8H53.5801C55.7401 8.8 57.6241 9.148 59.2321 9.844C60.8641 10.54 62.1121 11.548 62.9761 12.868C63.8401 14.188 64.2721 15.736 64.2721 17.512C64.2721 20.776 63.0121 23.14 60.4921 24.604L64.9201 32.884ZM52.8241 19.312C53.3521 19.312 53.7601 19.144 54.0481 18.808C54.3361 18.448 54.4801 18.004 54.4801 17.476C54.4801 16.948 54.3361 16.492 54.0481 16.108C53.7841 15.7 53.3761 15.496 52.8241 15.496H48.3241V19.312H52.8241ZM76.0301 32.776C75.7181 33.592 75.1781 34 74.4101 34H67.6061C67.3901 34 67.1981 33.928 67.0301 33.784C66.8861 33.616 66.8141 33.424 66.8141 33.208L66.8501 32.992L74.6981 9.988C74.7941 9.676 74.9741 9.4 75.2381 9.16C75.5021 8.92 75.8621 8.8 76.3181 8.8H86.3261C86.7821 8.8 87.1421 8.92 87.4061 9.16C87.6701 9.4 87.8501 9.676 87.9461 9.988L95.7941 32.992L95.8301 33.208C95.8301 33.424 95.7461 33.616 95.5781 33.784C95.4341 33.928 95.2541 34 95.0381 34H88.2341C87.4661 34 86.9261 33.592 86.6141 32.776L85.7141 30.256H76.9301L76.0301 32.776ZM81.3221 15.748L78.7661 23.236H83.8781L81.3221 15.748ZM125.156 8.8C125.372 8.8 125.552 8.884 125.696 9.052C125.864 9.196 125.948 9.376 125.948 9.592L125.912 9.844L117.632 32.812C117.512 33.148 117.32 33.436 117.056 33.676C116.792 33.892 116.444 34 116.012 34H107.624C107.192 34 106.844 33.892 106.58 33.676C106.316 33.436 106.136 33.184 106.04 32.92L97.688 9.844L97.652 9.592C97.652 9.376 97.724 9.196 97.868 9.052C98.036 8.884 98.228 8.8 98.444 8.8H106.04C106.472 8.8 106.82 8.932 107.084 9.196C107.372 9.436 107.564 9.7 107.66 9.988L111.8 23.776L115.94 9.988C116.036 9.676 116.216 9.4 116.48 9.16C116.744 8.92 117.104 8.8 117.56 8.8H125.156ZM155.742 8.8C155.958 8.8 156.138 8.884 156.282 9.052C156.45 9.196 156.534 9.376 156.534 9.592L156.498 9.844L148.218 32.812C148.098 33.148 147.906 33.436 147.642 33.676C147.378 33.892 147.03 34 146.598 34H138.21C137.778 34 137.43 33.892 137.166 33.676C136.902 33.436 136.722 33.184 136.626 32.92L128.274 9.844L128.238 9.592C128.238 9.376 128.31 9.196 128.454 9.052C128.622 8.884 128.814 8.8 129.03 8.8H136.626C137.058 8.8 137.406 8.932 137.67 9.196C137.958 9.436 138.15 9.7 138.246 9.988L142.386 23.776L146.526 9.988C146.622 9.676 146.802 9.4 147.066 9.16C147.33 8.92 147.69 8.8 148.146 8.8H155.742ZM185.392 8.8C185.656 8.8 185.884 8.896 186.076 9.088C186.268 9.28 186.364 9.508 186.364 9.772V15.568C186.364 15.832 186.268 16.06 186.076 16.252C185.884 16.444 185.656 16.54 185.392 16.54H177.652V33.028C177.652 33.292 177.556 33.52 177.364 33.712C177.172 33.904 176.944 34 176.68 34H169.264C169 34 168.772 33.904 168.58 33.712C168.388 33.52 168.292 33.292 168.292 33.028V16.54H160.552C160.288 16.54 160.06 16.444 159.868 16.252C159.676 16.06 159.58 15.832 159.58 15.568V9.772C159.58 9.508 159.676 9.28 159.868 9.088C160.06 8.896 160.288 8.8 160.552 8.8H185.392Z" fill="#FFF1EB"/>
</svg>
